<?xml version="1.0" encoding="UTF-8"?>
<svg id="Layer_2" xmlns="http://www.w3.org/2000/svg" viewBox="0 0 411.08 210.03">
  <defs>
    <style>
      .cls-1 {
        fill: #231f20;
      }

      .cls-2 {
        fill: #b8b5ba;
      }
    </style>
  </defs>
  <g id="Layer_1-2" data-name="Layer_1">
    <polygon class="cls-2" points="369.97 182.26 367.26 194.83 358.39 201.18 348.81 202.96 341.53 202.24 331.6 195.98 319.63 195.64 304.79 192.54 289.74 194.73 272.98 210.03 258.07 207.88 242.52 203.55 242.23 189.04 239.55 178.62 251.33 170.44 257.92 163.05 247.39 156.6 235.83 165.43 230.56 153.36 222.13 144 208.41 140.58 196.83 134.6 183.4 130.06 171.68 125.04 155.6 122.75 142.56 131.54 129.01 139.09 113.72 144.13 97.47 131.61 88.14 138.45 82.24 148.35 65.07 144.55 51.36 143.34 37.12 141.87 25.34 151.74 10.86 148.15 .69 149.39 0 138.13 .62 126.06 13.42 119.34 27.41 116.85 41.09 114.51 52.08 106.6 54.78 91.27 66.43 81.05 68.43 70.77 63.74 60.41 73.94 47.24 90.52 52.34 106.18 45.8 120.97 50.67 135.81 55.04 151.12 55.03 166.46 52.04 161.15 34.83 146.17 24.86 134.51 16.2 125.54 5.61 126.7 0 137.05 6.32 145.65 13.02 157.32 22.46 167.45 33.33 182.58 37.93 195.73 44.22 209.15 49.76 221.64 58.08 230.27 70.37 240.32 80.99 247.96 92.89 256.1 105.55 269.77 110.58 284.19 116.34 296.32 107.23 308.34 100.37 322.14 98.09 336.46 99.3 337.31 112.13 347.61 104.36 352.81 92.33 360.44 80.05 371.76 87.73 373.74 103.87 379.36 117.97 392.1 128.74 395.19 144.74 408.72 154.67 407.31 168.42 411.08 182.14 399.04 189.62 388.71 199.24 377.16 194.55 369.97 182.26"/>
    <path class="cls-1" d="M81.71,95.4l-6.42-27.24-2.3-4.73,2.35-1.55,10.58.33,8.86,4.3,3.96,9.36.72,9.77-3.5,9.12-9.51,3.86-2.73,1.45-2.02-4.66ZM89.92,71.57l-5.02-4.59-6.68.86h-2.77s4.05-3.06,4.05-3.06l9.38,30.79-4.43-1.84,1.48.64,4.79-4.53,4.27-5.23-.97-7.38-4.11-5.67Z"/>
    <path class="cls-1" d="M105.39,82.49l1.26-17.92.71-4.8,4.65,1.17-.69,4.73.72.14,3.11-3.25,4.76-1.65,1.82.16-1.14,5.32-2.04-.07-4.97.8-2.36,5.27-1.05,10.6-.03,4.86-5.54-.41.8-4.95Z"/>
    <path class="cls-1" d="M121.02,76.96l-1.55-1.65-.21-2.29,1.16-2.77,3.12.32,2.25,1.99-1.15,2.57-1.09,2.28-2.52-.45ZM132.03,102.89l-7.12-16.48-2.11-3.85,5.71-2.95,8.68,21.03,2.13,5.34-5.71,1.08-1.58-4.17Z"/>
    <path class="cls-1" d="M139.23,93.47l-.52-18-3.47.35-1.12-4.31,4.24-.73-.99-6.26,2.06-4.19,5.01-1.13,1.9-.61,1.23,5.26-2.01-.5-3.75,1.81.61,4.29-.28,1.04,5.7-1.34.4,5.01-5.49.87,2.51,17.55,1.3,5.47-5.66-.77-1.68-3.82Z"/>
    <path class="cls-1" d="M170.93,95.74l-5.24-3.8-6.5-13.12-2.92,1.69-2.72-4.15,3.89-2.33-4.98-6.29,4.55-1.53,4.12,6.43,4.99-2.71,2.12,3.98-5.18,2.75,6.22,12.8,3.35.82,2.22.14,1.54-.62,3.02,4.35-1.77,1.47-6.7.12Z"/>
    <path class="cls-1" d="M172.34,57.67l4.98-1.09.84,5.49,2.53,16.48-.95.09,4.93-16.13,3.25-.62,6.01,15.8-1.03-.16,1.27-16.66-.22-5.01,5.55-.44-.95,27.87-6.29.8-5.72-16.26,1.22.28-5.39,16.2-5.2.71-4.83-27.34Z"/>
    <path class="cls-1" d="M224.69,92.81l-6.58,2.66-7.15-1.67-6.65-3.7-2.21-7.04.96-7.56,5.16-5.51,6.43-3.52,7.42,2.01,6.62,4,2.04,7.17-1.86,7.16-4.17,6ZM225.67,80.4l-1.88-4.15-3.67-3.34-4.92.27-4.18.92-2.58,3.74-1.41,4.51,2.61,3.62,3.27,3.37,4.69-.03,4.21-.7,3.5-3.37.36-4.85Z"/>
    <path class="cls-1" d="M227.62,125.93l-7.3-.86-6.04-4.92-1.49-7.44-.29-7.39,5.32-5.83,7.39-1.82,7.32.22,5.73,5.24,1.64,7.28-.33,7.05-5.13,5.43-6.82,3.04ZM234.53,115.38l.2-4.32-1.86-4.11-2.75-4.18-4.59.6-4.07,1.25-3.72,2.93.43,4.48,1.48,4.29,2.89,4.08,4.71.12,4.55-1.31,2.71-3.83Z"/>
    <path class="cls-1" d="M263.85,140.77l-3.09-4.16.58-.23-1.43,4.87-4.21,4.68-7.17,1.44-6.55-2.75-5.02-5.37-2.81-7.29,2.62-7.05,5.68-4.83,5.96-1.52,4.4,2.3-.19.06-4.64-9.41-2.56-4.75,5.94-2.28,15.05,29.99,1.96,4.2-4.5,2.09ZM254.34,124.96l-4.33-.6-5-.57-3.52,3.68-.55,4.57,1.03,4.62,2.76,4.05,4.45,1.32,4.14-2.03,3.54-2.56,1.36-4.02-1.16-4.51-2.73-3.97Z"/>
    <path class="cls-1" d="M320.15,175.42l-7.49-6.32-3.82-9.22,1.27-9.93,6.2-7.46,10.08-3.11,1.04,4.48v-.25s-.54.15-.54.15l-7.83,2.32-3.15,6.23-1.06,6.8,1.68,7.09,5.84,3.93,7.96,1.03.54-.1.06,4.53-10.79-.17Z"/>
    <path class="cls-1" d="M332.81,152.82l2.45-3.2,4.15-1.72,3.9.63,3.41,1.31-.28-.08-1.89-4.41-.65-3.63-3.61.34-2.8.83-1.19,2.67-5.32,1.44,1.53-5.12,1.92-4.16,5.13-1.81,5.49.49,3.52,3.36,2.54,4.56,1.09,13.47.62,4.79-4.75.46-1.48-3.33,1.06.12-1.72,3.55-4.45,1.18-4.58-.66-3.38-2.54-1-4.32.27-4.21ZM338.17,159.73l4.12.77,3.56-1.92,1.3-3.58-2.32-2.9-3.76-1.33-2.8,2.7-1.88,2.88,1.78,3.39Z"/>
    <path class="cls-1" d="M361.97,178.26v-17.88s-4.16.3-4.16.3l-.4-5.08,2.77-.5.13-1.23,1.02-5.01,3.57-3.35,5.11-.64,2.06-.13-1.46,5.25-.08.14-3.63.79-.74,4.81,5.03.6.05,3.63-5.9.33.55,17.96.54,4.94-5.68.41,1.22-5.33Z"/>
    <path class="cls-1" d="M374.27,163.11l3.67-5.66,6.69-2.84,7.41-.29,5.67,4.81,1.49,7.64.36,1.93-23.58,2.04-.57-3.71,20.27-2.34-1.09,1.7-4.21-4.82-5.18-2.51-4.19,2.21-2.6,3.49-.44,4.78,1.66,4.49,3.65,2.06,4.26,1.57,4.25-.94,1.58-3.68,6.11.53-3.57,6.19-7.8,2.35-7.04-1.12-6.33-3.4-2.37-7.35,1.93-7.14ZM383.82,145.04l3.96-1.04-1.77,7.97-5.47,1.1,3.28-8.03Z"/>
  </g>
</svg>