<?xml version="1.0" encoding="UTF-8"?>
<svg id="Layer_2" data-name="Layer 2" xmlns="http://www.w3.org/2000/svg" viewBox="0 0 182.45 182.45">
  <defs>
    <style>
      .cls-1 {
        stroke-width: 0px;
      }

      .cls-1, .cls-2 {
        fill: none;
      }

      .cls-2 {
        stroke: #dd5746;
        stroke-miterlimit: 10;
      }
    </style>
  </defs>
  <g id="Layer_1-2" data-name="Layer 1">
    <rect class="cls-1" width="182.45" height="182.45"/>
    <path class="cls-2" d="M95.19,106.65v-16.8l60.64-.1v53.12c-9.31,7.42-18.91,13-28.81,16.75-9.9,3.74-20.05,5.62-30.47,5.62-14.06,0-26.84-3.01-38.33-9.03-11.49-6.02-20.17-14.73-26.03-26.12-5.86-11.39-8.79-24.12-8.79-38.18s2.91-26.94,8.74-39.01c5.83-12.08,14.21-21.04,25.15-26.9s23.54-8.79,37.79-8.79c10.35,0,19.71,1.68,28.08,5.03,8.37,3.35,14.92,8.02,19.68,14.01,4.75,5.99,8.37,13.8,10.84,23.44l-17.09,4.69c-2.15-7.29-4.82-13.02-8.01-17.19-3.19-4.17-7.75-7.5-13.67-10.01-5.92-2.51-12.5-3.76-19.73-3.76-8.66,0-16.15,1.32-22.46,3.96-6.32,2.64-11.41,6.1-15.28,10.4-3.87,4.3-6.88,9.02-9.03,14.16-3.65,8.85-5.47,18.46-5.47,28.81,0,12.76,2.2,23.44,6.59,32.03s10.79,14.98,19.19,19.14c8.4,4.17,17.32,6.25,26.76,6.25,8.2,0,16.21-1.58,24.02-4.74,7.81-3.16,13.74-6.53,17.77-10.11v-26.66h-42.09Z"/>
  </g>
</svg>