<?xml version="1.0" encoding="UTF-8"?>
<svg id="Layer_2" data-name="Layer 2" xmlns="http://www.w3.org/2000/svg" viewBox="0 0 182.45 182.45">
  <defs>
    <style>
      .cls-1 {
        stroke-width: 0px;
      }

      .cls-1, .cls-2 {
        fill: none;
      }

      .cls-2 {
        stroke: #fec571;
        stroke-miterlimit: 10;
      }
    </style>
  </defs>
  <g id="Layer_1-2" data-name="Layer 1">
    <rect class="cls-1" width="182.45" height="182.45"/>
    <path class="cls-2" d="M127.69,23.55c14.05,7.49,22.65,20.61,25.79,39.36h-19.24c-2.29-10.48-7.04-18.12-14.25-22.9s-16.29-7.18-27.25-7.18c-13.01,0-23.96,4.98-32.85,14.94-8.89,9.96-13.34,24.8-13.34,44.53,0,17.06,3.67,30.94,11.01,41.65,7.34,10.71,19.3,16.06,35.89,16.06,12.7,0,23.21-3.76,31.53-11.28,8.33-7.52,12.59-19.68,12.78-36.47h-44.92v-16.11h62.99v76.76h-12.5l-4.69-18.46c-6.47,7.23-12.2,12.24-17.2,15.04-8.39,4.82-19.05,7.23-31.99,7.23-16.72,0-31.09-5.5-43.13-16.5-13.13-13.8-19.69-32.75-19.69-56.84s6.42-43.13,19.25-57.32c12.19-13.54,27.98-20.31,47.36-20.31,13.28,0,24.77,2.6,34.46,7.81Z"/>
  </g>
</svg>