<?xml version="1.0" encoding="UTF-8"?>
<svg id="Layer_2" xmlns="http://www.w3.org/2000/svg" viewBox="0 0 837.32 848.1">
  <defs>
    <style>
      .cls-1 {
        stroke: #f8876b;
      }

      .cls-1, .cls-2, .cls-3 {
        fill: none;
        stroke-miterlimit: 10;
        stroke-width: 8px;
      }

      .cls-2 {
        stroke: #3ad599;
      }

      .cls-3 {
        stroke: #39f;
      }
    </style>
  </defs>
  <g id="Layer_3">
    <line class="cls-1" x1="3.72" y1="270.65" x2="66.82" y2="234.22"/>
    <line class="cls-1" x1="106.24" y1="270.9" x2="170.48" y2="233.81"/>
    <line class="cls-1" x1="4.3" y1="373.73" x2="67.39" y2="337.31"/>
    <line class="cls-1" x1="106.82" y1="373.63" x2="169.91" y2="337.2"/>
    <line class="cls-2" x1="72.63" y1="467.74" x2="179.26" y2="467.74"/>
    <line class="cls-2" x1="72.99" y1="570.82" x2="179.62" y2="570.68"/>
    <line class="cls-2" x1="9.94" y1="504" x2="116.57" y2="504"/>
    <line class="cls-2" x1="10.07" y1="607.07" x2="116.7" y2="606.93"/>
    <line class="cls-3" x1="73.26" y1="695.58" x2="73.26" y2="802.21"/>
    <line class="cls-3" x1="175.36" y1="695.44" x2="175.36" y2="802.07"/>
    <line class="cls-3" x1="10.57" y1="731.84" x2="10.57" y2="838.47"/>
    <line class="cls-3" x1="112.67" y1="731.7" x2="112.67" y2="838.33"/>
    <line class="cls-1" x1="3.31" y1="79.1" x2="66.41" y2="42.67"/>
    <line class="cls-3" x1="66.69" y1="41.13" x2="66.69" y2="147.76"/>
    <line class="cls-2" x1="64.31" y1="42.89" x2="170.94" y2="42.89"/>
    <line class="cls-3" x1="168.79" y1="40.99" x2="168.79" y2="147.62"/>
    <line class="cls-2" x1="64.66" y1="145.97" x2="171.29" y2="145.82"/>
    <line class="cls-1" x1="105.83" y1="79.35" x2="170.07" y2="42.26"/>
    <line class="cls-3" x1="4" y1="77.39" x2="4" y2="184.02"/>
    <line class="cls-3" x1="106.1" y1="77.25" x2="106.1" y2="183.88"/>
    <line class="cls-1" x1="3.89" y1="182.18" x2="66.99" y2="145.76"/>
    <line class="cls-1" x1="106.41" y1="182.08" x2="169.51" y2="145.65"/>
    <line class="cls-2" x1="1.62" y1="79.15" x2="108.25" y2="79.15"/>
    <line class="cls-2" x1="1.75" y1="182.22" x2="108.38" y2="182.08"/>
    <line class="cls-3" x1="374.86" y1="43.13" x2="374.86" y2="127.33"/>
    <line class="cls-2" x1="374.42" y1="42.89" x2="546.41" y2="42.89"/>
    <line class="cls-2" x1="313.94" y1="84.71" x2="485.94" y2="84.71"/>
    <line class="cls-3" x1="313.94" y1="168.91" x2="313.94" y2="84.71"/>
    <line class="cls-2" x1="485.94" y1="168.91" x2="313.94" y2="168.91"/>
    <line class="cls-1" x1="546.41" y1="127.09" x2="485.5" y2="168.9"/>
    <line class="cls-3" x1="546.41" y1="42.89" x2="546.41" y2="127.09"/>
    <line class="cls-1" x1="485.94" y1="84.71" x2="546.41" y2="42.89"/>
    <line class="cls-1" x1="374.86" y1="127.33" x2="313.94" y2="169.14"/>
    <line class="cls-1" x1="314.38" y1="84.94" x2="374.86" y2="43.13"/>
    <line class="cls-2" x1="374.86" y1="127.33" x2="546.41" y2="127.09"/>
    <line class="cls-3" x1="485.94" y1="84.71" x2="485.94" y2="168.91"/>
    <path class="cls-1" d="M679.65,40.49c0-20.15,34.37-36.49,76.77-36.49,1.03,0,2.06,0,3.09.03"/>
    <path class="cls-2" d="M753.33,76.94c-40.97-.77-73.68-16.8-73.68-36.46"/>
    <path class="cls-2" d="M759.5,4.03c40.97.77,73.68,16.8,73.68,36.46"/>
    <path class="cls-1" d="M833.18,40.47c0,20.15-34.37,36.49-76.77,36.49-1.03,0-2.06,0-3.09-.03"/>
    <path class="cls-1" d="M679.65,154.4c0-20.15,34.37-36.49,76.77-36.49,1.03,0,2.06,0,3.09.03"/>
    <path class="cls-2" d="M753.33,190.85c-40.97-.77-73.68-16.8-73.68-36.46"/>
    <path class="cls-2" d="M759.5,117.94c40.97.77,73.68,16.8,73.68,36.46"/>
    <path class="cls-1" d="M833.18,154.38c0,20.15-34.37,36.49-76.77,36.49-1.03,0-2.06,0-3.09-.03"/>
    <line class="cls-3" x1="680.07" y1="154.38" x2="680.07" y2="40.47"/>
    <line class="cls-3" x1="833.18" y1="154.38" x2="833.18" y2="40.47"/>
    <line class="cls-3" x1="365.93" y1="722.32" x2="365.93" y2="806.52"/>
    <line class="cls-3" x1="305.02" y1="848.1" x2="305.02" y2="763.9"/>
    <line class="cls-3" x1="537.49" y1="722.08" x2="537.49" y2="806.28"/>
    <line class="cls-3" x1="477.01" y1="763.9" x2="477.01" y2="848.1"/>
    <line class="cls-2" x1="371.85" y1="461.81" x2="543.84" y2="461.81"/>
    <line class="cls-2" x1="311.37" y1="503.63" x2="483.36" y2="503.63"/>
    <line class="cls-2" x1="483.36" y1="587.83" x2="311.37" y2="587.83"/>
    <line class="cls-2" x1="372.29" y1="546.26" x2="543.84" y2="546.02"/>
    <line class="cls-1" x1="547.29" y1="315.66" x2="486.37" y2="357.46"/>
    <line class="cls-1" x1="486.81" y1="273.27" x2="547.29" y2="231.45"/>
    <line class="cls-1" x1="375.73" y1="315.9" x2="314.82" y2="357.7"/>
    <line class="cls-1" x1="315.26" y1="273.51" x2="375.73" y2="231.69"/>
    <path class="cls-1" d="M679.78,268.3c0-20.15,34.37-36.49,76.77-36.49,1.03,0,2.06,0,3.09.03"/>
    <path class="cls-1" d="M833.32,268.29c0,20.15-34.37,36.49-76.77,36.49-1.03,0-2.06,0-3.09-.03"/>
    <path class="cls-1" d="M679.78,382.21c0-20.15,34.37-36.49,76.77-36.49,1.03,0,2.06,0,3.09.03"/>
    <path class="cls-1" d="M833.32,382.2c0,20.15-34.37,36.49-76.77,36.49-1.03,0-2.06,0-3.09-.03"/>
    <path class="cls-2" d="M747.01,532.61c-40.97-.77-73.68-16.8-73.68-36.46"/>
    <path class="cls-2" d="M753.19,459.69c40.97.77,73.68,16.8,73.68,36.46"/>
    <path class="cls-2" d="M747.01,646.52c-40.97-.77-73.68-16.8-73.68-36.46"/>
    <path class="cls-2" d="M753.19,573.6c40.97.77,73.68,16.8,73.68,36.46"/>
    <line class="cls-3" x1="676.85" y1="827.4" x2="676.85" y2="713.49"/>
    <line class="cls-3" x1="829.96" y1="827.4" x2="829.96" y2="713.49"/>
  </g>
</svg>