<svg xmlns="http://www.w3.org/2000/svg" viewBox="0 0 104.06 104.06"><g id="Layer_2" data-name="Layer 2"><g id="Layer_1-2" data-name="Layer 1"><polygon points="18.66 91.67 3.31 69.67 1.02 42.94 12.4 18.66 34.4 3.31 61.12 1.02 85.41 12.4 100.75 34.4 103.04 61.12 91.67 85.41 69.67 100.75 42.94 103.04 18.66 91.67"/><path d="M60.94,2l23.8,11.15,15,21.56L102,60.94,90.87,84.74l-21.56,15L43.13,102,19.32,90.87l-15-21.56L2,43.12l11.15-23.8,21.56-15L60.94,2m.36-2L34,2.34,11.61,18,0,42.76,2.34,70,18,92.46l24.77,11.6L70,101.73,92.46,86.07l11.6-24.77L101.73,34,86.07,11.61,61.3,0Z"/></g></g></svg>