<svg xmlns="http://www.w3.org/2000/svg" viewBox="0 0 102.16 102.16"><defs><style>.cls-1{fill:none;stroke:#000;stroke-miterlimit:10;stroke-width:2px;}</style></defs><g id="Layer_2" data-name="Layer 2"><g id="Layer_2-2" data-name="Layer 2"><path d="M38.05,2l26.29.06,22.73,13.2,13.09,22.79-.06,26.29L86.9,87.07,64.11,100.16l-26.29-.06L15.09,86.9,2,64.11l.06-26.29,13.2-22.73L38.05,2m-.53-2L13.8,13.62.06,37.28,0,64.64,13.62,88.36,37.28,102.1l27.36.06L88.36,88.54,102.1,64.88l.06-27.36L88.54,13.8,64.88.06,37.52,0Z"/><polyline class="cls-1" points="51.84 101.24 31.4 87.62 19.59 64.04 19.59 36.8 31.4 13.22 49.08 1.44"/></g></g></svg>