<?xml version="1.0" encoding="UTF-8"?>
<svg id="Layer_2" data-name="Layer 2" xmlns="http://www.w3.org/2000/svg" viewBox="0 0 182.45 182.45">
  <defs>
    <style>
      .cls-1 {
        stroke-width: 0px;
      }

      .cls-1, .cls-2 {
        fill: none;
      }

      .cls-2 {
        stroke: #dd5746;
        stroke-miterlimit: 10;
      }
    </style>
  </defs>
  <g id="Layer_1-2" data-name="Layer 1">
    <rect class="cls-1" width="182.45" height="182.45"/>
    <path class="cls-2" d="M134.01,143.18c8.79,6.05,16.89,10.48,24.32,13.28l-5.57,13.18c-10.29-3.71-20.54-9.57-30.76-17.58-10.61,5.92-22.33,8.89-35.16,8.89s-24.71-3.12-35.25-9.38-18.67-15.04-24.37-26.37c-5.7-11.33-8.54-24.09-8.54-38.28s2.86-26.99,8.59-38.57c5.73-11.59,13.88-20.41,24.46-26.46,10.58-6.05,22.41-9.08,35.5-9.08s25.13,3.14,35.74,9.42c10.61,6.28,18.7,15.07,24.27,26.37,5.57,11.3,8.35,24.04,8.35,38.23,0,11.78-1.79,22.38-5.37,31.79-3.58,9.41-8.98,17.59-16.21,24.56ZM92.31,118.96c10.94,3.06,19.95,7.62,27.05,13.67,11.13-10.16,16.7-25.42,16.7-45.8,0-11.59-1.97-21.71-5.91-30.37-3.94-8.66-9.7-15.38-17.29-20.17-7.58-4.79-16.1-7.18-25.54-7.18-14.13,0-25.85,4.83-35.16,14.5-9.31,9.67-13.96,24.11-13.96,43.31s4.61,32.91,13.82,42.87c9.21,9.96,20.98,14.94,35.3,14.94,6.77,0,13.15-1.27,19.14-3.81-5.92-3.84-12.17-6.58-18.75-8.2l4.59-13.77Z"/>
  </g>
</svg>