<?xml version="1.0" encoding="UTF-8"?>
<svg id="Layer_2" data-name="Layer 2" xmlns="http://www.w3.org/2000/svg" viewBox="0 0 182.45 182.45">
  <defs>
    <style>
      .cls-1 {
        stroke-width: 0px;
      }

      .cls-1, .cls-2 {
        fill: none;
      }

      .cls-2 {
        stroke: #4793af;
        stroke-miterlimit: 10;
      }
    </style>
  </defs>
  <g id="Layer_1-2" data-name="Layer 1">
    <rect class="cls-1" width="182.45" height="182.45"/>
    <path class="cls-2" d="M155.47,167.22l-22.4-19c-14.6,10.8-27.8,15.4-46.2,15.4-17,0-32.6-4.4-46-15.4-10.2-8.4-25.2-26.4-25.2-58.8,0-10,1.4-41.8,28.6-61.2,7.8-5.6,21-13,43.6-13,17.2,0,32.4,4,46,15,10.6,8.8,24.8,26.8,24.8,59.8,0,17.4-3.6,29.6-13,44.4l21.8,18.8-12,14ZM127.67,50.23c-13-18.8-32-20.4-40.4-20.4-6.8,0-22.6,1.2-35.6,14.8-15.4,16.4-15.4,37.4-15.4,44.2,0,7.2.2,32.8,19.6,48.8,5,4.2,15.2,10.8,32,10.8,7,0,24.4-1.2,37.4-16.6,13.4-16.2,13.2-36,13.2-42.4,0-6,0-23.6-10.8-39.2Z"/>
  </g>
</svg>