<?xml version="1.0" encoding="UTF-8"?>
<svg id="Layer_2" data-name="Layer 2" xmlns="http://www.w3.org/2000/svg" viewBox="0 0 182.45 182.45">
  <defs>
    <style>
      .cls-1 {
        stroke-width: 0px;
      }

      .cls-1, .cls-2 {
        fill: none;
      }

      .cls-2 {
        stroke: #fec571;
        stroke-miterlimit: 10;
      }
    </style>
  </defs>
  <g id="Layer_1-2" data-name="Layer 1">
    <rect class="cls-1" width="182.45" height="182.45"/>
    <path class="cls-2" d="M156.22,158.82l-9.74,11.78-22.21-16.85c-5.34,2.93-11.12,5.27-17.33,7.03-6.22,1.75-13,2.63-20.36,2.63-22.26,0-39.71-7.29-52.33-21.88-11.13-14.19-16.7-31.97-16.7-53.32,0-19.4,4.82-36,14.45-49.8,12.37-17.71,30.66-26.56,54.88-26.56s44.08,8.14,56.25,24.41c9.5,12.69,14.26,28.93,14.26,48.72,0,9.24-1.14,18.13-3.41,26.65-3.45,13.02-9.26,23.63-17.45,31.83l19.69,15.36ZM100.36,145.29c3.52-.56,6.59-1.66,9.2-3.31l-15.83-12.27,9.76-12.02,18.71,14.6c5.94-6.78,9.97-14.37,12.09-22.78,2.12-8.41,3.18-16.46,3.18-24.15,0-16.88-4.41-30.47-13.23-40.77-8.82-10.3-20.88-15.45-36.18-15.45s-27.77,4.94-36.82,14.81c-9.05,9.87-13.57,25.07-13.57,45.6,0,17.27,4.35,31.02,13.06,41.25,8.71,10.23,21.47,15.34,38.29,15.34,4.04,0,7.82-.28,11.34-.84Z"/>
  </g>
</svg>