<?xml version="1.0" encoding="UTF-8"?>
<svg id="Layer_2" data-name="Layer 2" xmlns="http://www.w3.org/2000/svg" viewBox="0 0 182.45 182.45">
  <defs>
    <style>
      .cls-1 {
        stroke-width: 0px;
      }

      .cls-1, .cls-2 {
        fill: none;
      }

      .cls-2 {
        stroke: #fec571;
        stroke-miterlimit: 10;
      }
    </style>
  </defs>
  <g id="Layer_1-2" data-name="Layer 1">
    <rect class="cls-1" width="182.45" height="182.45"/>
    <path class="cls-2" d="M137.01,29.99c9.91,9.57,15.41,20.44,16.51,32.62h-18.95c-2.11-9.24-6.31-16.57-12.61-21.97-6.3-5.4-15.14-8.11-26.52-8.11-13.87,0-25.08,4.97-33.61,14.9s-12.8,25.17-12.8,45.69c0,16.81,3.85,30.45,11.56,40.9,7.71,10.46,19.2,15.69,34.49,15.69,14.07,0,24.78-5.5,32.14-16.5,3.9-5.79,6.81-13.41,8.73-22.85h18.95c-1.67,15.1-7.21,27.77-16.6,37.99-11.26,12.3-26.45,18.46-45.56,18.46-16.47,0-30.31-5.05-41.51-15.15-14.74-13.35-22.11-33.97-22.11-61.86,0-21.17,5.53-38.53,16.6-52.08,11.97-14.72,28.47-22.08,49.51-22.08,17.95,0,31.88,4.79,41.79,14.36Z"/>
  </g>
</svg>