<?xml version="1.0" encoding="UTF-8"?>
<svg id="Layer_2" data-name="Layer 2" xmlns="http://www.w3.org/2000/svg" viewBox="0 0 182.45 182.45">
  <defs>
    <style>
      .cls-1 {
        stroke-width: 0px;
      }

      .cls-1, .cls-2 {
        fill: none;
      }

      .cls-2 {
        stroke: #4793af;
        stroke-miterlimit: 10;
      }
    </style>
  </defs>
  <g id="Layer_1-2" data-name="Layer 1">
    <rect class="cls-1" width="182.45" height="182.45"/>
    <path class="cls-2" d="M159.49,121.83c-3.6,9.2-15.8,32.2-43.6,40.4-10,3-18.8,3.2-22.6,3.2-25,0-39.2-10-46.8-17-9.4-8.8-22.2-26.4-22.2-57.2,0-44,26.6-74.2,71.4-74.2,8,0,34.6.6,52,21,5.8,6.8,9.4,14,12.4,22.2l-19,3.8c-2.4-6.8-4.6-10.6-6.4-13.2-5-7-17-18.8-39.2-18.8-3.4,0-12,.4-20.6,4-29.6,12.6-29.8,46.4-29.8,54.2,0,34,16.2,50,30,55.8,3.6,1.4,10.4,3.6,20.6,3.6,2.4,0,8,0,14.4-1.8,5.6-1.6,18.8-7,26.6-21.6,2.2-4.2,4-8.8,5.8-18l20.4,2.4c-.4,2-1.4,6.2-3.4,11.2Z"/>
  </g>
</svg>