<?xml version="1.0" encoding="UTF-8"?><svg id="a" xmlns="http://www.w3.org/2000/svg" viewBox="0 0 1325.62 486.97"><defs><style>.b{letter-spacing:-.03em;}.c{fill:#54843a;font-family:Chaloops-Bold, Chaloops;font-size:44px;}.d{letter-spacing:-.02em;}.e{fill:#ef0e6c;}.f{fill:#efc500;}.g{fill:#99b802;}</style></defs><rect class="e" x="138.89" y="89.86" width="78.64" height="77.62" rx="14.55" ry="14.55"/><rect class="e" x="230.04" y="89.61" width="78.64" height="77.62" rx="14.55" ry="14.55"/><rect class="e" x="321.19" y="89.35" width="78.64" height="77.62" rx="14.55" ry="14.55"/><rect class="e" x="412.34" y="89.1" width="78.64" height="77.62" rx="14.55" ry="14.55"/><rect class="e" x="504" y="89.84" width="78.64" height="77.62" rx="14.55" ry="14.55"/><rect class="f" x="595.15" y="89.59" width="78.64" height="77.62" rx="14.55" ry="14.55"/><rect class="e" x="161.62" y="179.48" width="78.64" height="77.62" rx="14.55" ry="14.55"/><rect class="e" x="252.77" y="179.22" width="78.64" height="77.62" rx="14.55" ry="14.55"/><rect class="e" x="343.91" y="178.97" width="78.64" height="77.62" rx="14.55" ry="14.55"/><rect class="e" x="435.06" y="178.71" width="78.64" height="77.62" rx="14.55" ry="14.55"/><rect class="f" x="526.72" y="179.46" width="78.64" height="77.62" rx="14.55" ry="14.55"/><rect class="f" x="617.87" y="179.2" width="78.64" height="77.62" rx="14.55" ry="14.55"/><rect class="e" x="207.57" y="266.54" width="78.64" height="77.62" rx="14.55" ry="14.55"/><rect class="e" x="298.72" y="266.29" width="78.64" height="77.62" rx="14.55" ry="14.55"/><rect class="e" x="389.87" y="266.03" width="78.64" height="77.62" rx="14.55" ry="14.55"/><rect class="e" x="481.02" y="265.78" width="78.64" height="77.62" rx="14.55" ry="14.55"/><rect class="f" x="572.68" y="266.52" width="78.64" height="77.62" rx="14.55" ry="14.55"/><rect class="f" x="663.83" y="266.27" width="78.64" height="77.62" rx="14.55" ry="14.55"/><rect class="f" x="686.55" y="88.1" width="78.64" height="77.62" rx="14.55" ry="14.55"/><rect class="f" x="778.21" y="88.84" width="78.64" height="77.62" rx="14.55" ry="14.55"/><rect class="f" x="869.36" y="88.59" width="78.64" height="77.62" rx="14.55" ry="14.55"/><rect class="f" x="709.28" y="177.71" width="78.64" height="77.62" rx="14.55" ry="14.55"/><rect class="f" x="800.94" y="178.46" width="78.64" height="77.62" rx="14.55" ry="14.55"/><rect class="f" x="892.09" y="178.2" width="78.64" height="77.62" rx="14.55" ry="14.55"/><rect class="f" x="960.89" y="88.46" width="78.64" height="77.62" rx="14.55" ry="14.55"/><rect class="f" x="753.32" y="266.93" width="78.64" height="77.62" rx="14.55" ry="14.55"/><rect class="g" y="88.84" width="124.6" height="77.62" rx="14.55" ry="14.55"/><rect class="g" x="2.04" y="178.71" width="147.06" height="77.62" rx="14.55" ry="14.55"/><rect class="g" x="3.06" y="268.59" width="189.96" height="77.62" rx="14.55" ry="14.55"/><rect class="g" x="93.19" y="356.67" width="78.64" height="77.62" rx="14.55" ry="14.55"/><rect class="g" x="185.11" y="356.67" width="78.64" height="77.62" rx="14.55" ry="14.55"/><rect class="g" x="274.98" y="356.16" width="102.89" height="77.62" rx="14.55" ry="14.55"/><rect class="g" x="387.83" y="356.67" width="446.55" height="77.62" rx="14.55" ry="14.55"/><rect class="g" x="843.83" y="267.31" width="78.64" height="77.62" rx="14.55" ry="14.55"/><rect class="g" x="936.26" y="267.82" width="78.64" height="77.62" rx="14.55" ry="14.55"/><rect class="g" x="1027.66" y="267.82" width="78.64" height="77.62" rx="14.55" ry="14.55"/><rect class="g" x="1118.55" y="266.8" width="192.77" height="77.62" rx="14.55" ry="14.55"/><rect class="g" x="982.21" y="178.46" width="78.64" height="77.62" rx="14.55" ry="14.55"/><rect class="g" x="1074.13" y="178.97" width="78.64" height="77.62" rx="14.55" ry="14.55"/><rect class="g" x="1163.49" y="178.97" width="148.85" height="77.62" rx="14.55" ry="14.55"/><rect class="g" x="1051.15" y="89.1" width="78.64" height="77.62" rx="14.55" ry="14.55"/><rect class="g" x="1141.53" y="90.12" width="78.64" height="77.62" rx="14.55" ry="14.55"/><rect class="g" x="1233.45" y="90.12" width="78.64" height="77.62" rx="14.55" ry="14.55"/><rect class="g" x="844.85" y="356.67" width="102.38" height="77.62" rx="14.55" ry="14.55"/><rect class="g" x="960.26" y="356.16" width="78.64" height="77.62" rx="14.55" ry="14.55"/><rect class="g" x="1050.64" y="355.65" width="78.64" height="77.62" rx="14.55" ry="14.55"/><rect class="g" x="4.21" y="1.77" width="78.64" height="77.62" rx="14.55" ry="14.55"/><rect class="g" x="95.36" y="1.51" width="78.64" height="77.62" rx="14.55" ry="14.55"/><rect class="g" x="186.51" y="1.26" width="78.64" height="77.62" rx="14.55" ry="14.55"/><rect class="g" x="277.66" y="1" width="78.64" height="77.62" rx="14.55" ry="14.55"/><rect class="g" x="369.32" y="1.74" width="78.64" height="77.62" rx="14.55" ry="14.55"/><rect class="g" x="460.47" y="1.49" width="78.64" height="77.62" rx="14.55" ry="14.55"/><rect class="g" x="551.87" width="78.64" height="77.62" rx="14.55" ry="14.55"/><rect class="g" x="643.53" y=".74" width="78.64" height="77.62" rx="14.55" ry="14.55"/><rect class="g" x="734.68" y=".49" width="78.64" height="77.62" rx="14.55" ry="14.55"/><rect class="g" x="826.21" y=".36" width="78.64" height="77.62" rx="14.55" ry="14.55"/><rect class="g" x="916.47" y="1" width="78.64" height="77.62" rx="14.55" ry="14.55"/><rect class="g" x="1006.85" y="2.02" width="78.64" height="77.62" rx="14.55" ry="14.55"/><rect class="g" x="1096.85" y="1.01" width="78.64" height="77.62" rx="14.55" ry="14.55"/><rect class="g" x="2.77" y="357.07" width="78.64" height="77.62" rx="14.55" ry="14.55"/><text class="c" transform="translate(9.96 412.39)"><tspan x="0" y="0">Cat Kn</tspan><tspan class="d" x="131.29" y="0">e</tspan><tspan x="153.21" y="0">ading </tspan><tspan x="0" y="52.8">Simu</tspan><tspan class="b" x="95.61" y="52.8">l</tspan><tspan x="107.01" y="52.8">ator</tspan></text></svg>