<?xml version="1.0" encoding="UTF-8"?>
<svg id="Layer_2" data-name="Layer 2" xmlns="http://www.w3.org/2000/svg" viewBox="0 0 183.45 183.45">
  <defs>
    <style>
      .cls-1 {
        fill: none;
        stroke: #fff;
        stroke-miterlimit: 10;
      }

      .cls-2 {
        fill: #dd5746;
        stroke-width: 0px;
      }
    </style>
  </defs>
  <g id="Layer_1-2" data-name="Layer 1">
    <rect class="cls-1" x=".5" y=".5" width="182.45" height="182.45"/>
    <path class="cls-2" d="M138.43,113.64l18.95,4.79c-3.97,15.56-11.12,27.43-21.44,35.6-10.32,8.17-22.93,12.26-37.84,12.26s-27.98-3.14-37.65-9.42c-9.67-6.28-17.03-15.38-22.07-27.29-5.05-11.91-7.57-24.71-7.57-38.38,0-14.91,2.85-27.91,8.54-39.01,5.7-11.1,13.8-19.53,24.32-25.29,10.51-5.76,22.09-8.64,34.72-8.64,14.32,0,26.37,3.65,36.13,10.94,9.77,7.29,16.57,17.55,20.41,30.76l-18.65,4.39c-3.32-10.42-8.14-18-14.45-22.75-6.32-4.75-14.26-7.13-23.83-7.13-11,0-20.2,2.64-27.59,7.91-7.39,5.27-12.58,12.35-15.58,21.24-3,8.89-4.49,18.05-4.49,27.49,0,12.17,1.77,22.8,5.32,31.88,3.55,9.08,9.07,15.87,16.55,20.36,7.49,4.49,15.59,6.74,24.32,6.74,10.61,0,19.6-3.06,26.95-9.18,7.36-6.12,12.34-15.2,14.94-27.25Z"/>
  </g>
</svg>