<?xml version="1.0" encoding="UTF-8"?>
<svg id="Layer_2" data-name="Layer 2" xmlns="http://www.w3.org/2000/svg" viewBox="0 0 183.45 183.45">
  <defs>
    <style>
      .cls-1 {
        fill: none;
        stroke: #fff;
        stroke-miterlimit: 10;
      }

      .cls-2 {
        fill: #4793af;
        stroke-width: 0px;
      }
    </style>
  </defs>
  <g id="Layer_1-2" data-name="Layer 1">
    <rect class="cls-1" x=".5" y=".5" width="182.45" height="182.45"/>
    <path class="cls-2" d="M142.82,162.32v-19.8c-1.2,1.6-2.4,4-5.6,7-7,7-21.8,16.4-46,16.4-11.4,0-22-2-32.2-6.8-14.2-6.8-38-25.4-38-65.6,0-9.2,1.2-33.4,19.2-53.6,8.2-9,23.8-22.4,53.6-22.4,4.2,0,14.8.2,26,4.2,7.2,2.4,22.2,9,33.6,26.2,2.2,3.4,4,6.8,5.8,10.6l-19.6,5c-2-5.8-4.6-11-9-15.8-12.2-14-31-14.6-36.2-14.6-21.4,0-32.6,9.8-38.2,16.2-6,6.8-14.4,20.2-14.4,42,0,6.2.4,23.2,11,38.2,5.8,8,17,20,41.2,20,5.2,0,18.6-.6,31.2-9.2,17.4-12,17.8-29.4,17.6-36.8h-49.2v-15.8h65.6v74.6h-16.4Z"/>
  </g>
</svg>