<svg xmlns="http://www.w3.org/2000/svg" viewBox="0 0 102.16 102.16"><defs><style>.cls-1{fill:none;stroke:#000;stroke-miterlimit:10;stroke-width:2px;}</style></defs><g id="Layer_2" data-name="Layer 2"><g id="Layer_2-2" data-name="Layer 2"><path d="M64.11,2,86.9,15.09l13.2,22.73.06,26.29L87.07,86.9,64.34,100.1l-26.29.06L15.26,87.07,2.06,64.34,2,38.05,15.09,15.26,37.82,2.06,64.11,2m.53-2L37.28.06,13.62,13.8,0,37.52.06,64.88,13.8,88.54l23.72,13.62,27.36-.06L88.54,88.36l13.62-23.72-.06-27.36L88.36,13.62,64.64,0Z"/><polyline class="cls-1" points="52.34 100.84 60.71 87.22 65.54 63.63 65.54 36.4 60.71 12.81 53.47 1.04"/></g></g></svg>