<?xml version="1.0" encoding="UTF-8"?>
<svg id="Layer_2" data-name="Layer 2" xmlns="http://www.w3.org/2000/svg" viewBox="0 0 182.45 182.45">
  <defs>
    <style>
      .cls-1 {
        stroke-width: 0px;
      }

      .cls-1, .cls-2 {
        fill: none;
      }

      .cls-2 {
        stroke: #fec571;
        stroke-miterlimit: 10;
      }
    </style>
  </defs>
  <g id="Layer_1-2" data-name="Layer 1">
    <path class="cls-2" d="M34.29,19.35h65.21c10.74,0,19.59,1.6,26.56,4.79,13.23,6.12,19.85,17.42,19.85,33.89,0,8.59-1.77,15.62-5.32,21.09-3.55,5.47-8.51,9.86-14.89,13.18,5.6,2.28,9.81,5.27,12.65,8.98s4.41,9.73,4.74,18.07l.68,19.24c.2,5.47.65,9.54,1.37,12.21,1.17,4.56,3.25,7.49,6.25,8.79v3.22h-23.83c-.65-1.24-1.17-2.83-1.56-4.79s-.72-5.73-.98-11.33l-1.17-23.93c-.44-9.38-3.83-15.66-10.15-18.85-3.61-1.76-9.27-2.64-16.99-2.64h-42.98v61.52h-19.43V19.35ZM97.41,85.07c8.86,0,15.87-1.82,21.03-5.47,5.16-3.65,7.74-10.22,7.74-19.73,0-10.22-3.61-17.19-10.83-20.9-3.86-1.95-9.02-2.93-15.48-2.93h-46.15v49.02h43.69Z"/>
    <rect class="cls-1" width="182.45" height="182.45"/>
  </g>
</svg>