<?xml version="1.0" encoding="UTF-8"?>
<svg id="Layer_2" data-name="Layer 2" xmlns="http://www.w3.org/2000/svg" viewBox="0 0 182.45 182.45">
  <defs>
    <style>
      .cls-1 {
        stroke-width: 0px;
      }

      .cls-1, .cls-2 {
        fill: none;
      }

      .cls-2 {
        stroke: #4793af;
        stroke-miterlimit: 10;
      }
    </style>
  </defs>
  <g id="Layer_1-2" data-name="Layer 1">
    <rect class="cls-1" width="182.45" height="182.45"/>
    <path class="cls-2" d="M128.34,161.72l-38.6-60h-36.4v60h-18.4V20.52h52.6c4.4,0,9-.2,13.4,0,19.6.8,28.8,7,34.8,14.2,3.8,4.6,8.6,13,8.6,27,0,5.8-.8,25-18.8,34.2-3.4,1.8-6.8,3.2-14.4,4.6l39.6,61.2h-22.4ZM114.54,40.12c-7.4-4.4-16.2-4-24.6-4h-36.6v49.8h37.6c10.6,0,23.2.2,30.4-9.6,3.2-4.4,4.4-9.2,4.4-14.6,0-4-.4-15-11.2-21.6Z"/>
  </g>
</svg>