<?xml version="1.0" encoding="UTF-8"?>
<svg id="Layer_2" data-name="Layer 2" xmlns="http://www.w3.org/2000/svg" viewBox="0 0 182.45 182.45">
  <defs>
    <style>
      .cls-1 {
        stroke-width: 0px;
      }

      .cls-1, .cls-2 {
        fill: none;
      }

      .cls-2 {
        stroke: #dd5746;
        stroke-miterlimit: 10;
      }
    </style>
  </defs>
  <g id="Layer_1-2" data-name="Layer 1">
    <path class="cls-2" d="M34.29,162.81V19.64h63.48c12.76,0,22.46,1.29,29.1,3.86,6.64,2.57,11.95,7.11,15.92,13.62,3.97,6.51,5.96,13.71,5.96,21.58,0,10.16-3.29,18.72-9.86,25.68-6.58,6.97-16.73,11.39-30.47,13.28,5.01,2.41,8.82,4.79,11.43,7.13,5.53,5.08,10.77,11.43,15.72,19.04l24.9,38.96h-23.83l-18.95-29.79c-5.53-8.59-10.09-15.17-13.67-19.73-3.58-4.56-6.79-7.75-9.62-9.57-2.83-1.82-5.71-3.09-8.64-3.81-2.15-.46-5.66-.68-10.55-.68h-21.97v63.57h-18.95ZM53.24,82.83h40.72c8.66,0,15.43-.89,20.31-2.69,4.88-1.79,8.59-4.65,11.13-8.59,2.54-3.94,3.81-8.22,3.81-12.84,0-6.77-2.46-12.34-7.37-16.7-4.92-4.36-12.68-6.54-23.29-6.54h-45.31v47.36Z"/>
    <rect class="cls-1" width="182.45" height="182.45"/>
  </g>
</svg>